<svg width="550" height="550" viewBox="0 0 550 550" fill="none" xmlns="http://www.w3.org/2000/svg">
<path d="M450 275C450 305.688 441.93 335.836 426.6 362.421C411.27 389.005 389.219 411.091 362.659 426.463C336.098 441.834 305.963 449.952 275.275 450C244.587 450.048 214.426 442.026 187.818 426.737L188.689 425.22C215.032 440.355 244.891 448.298 275.272 448.25C305.653 448.202 335.487 440.166 361.782 424.948C388.077 409.73 409.908 387.865 425.084 361.546C440.261 335.228 448.25 305.381 448.25 275H450Z" stroke="url(#paint0_linear_87_20)" stroke-width="200" stroke-linejoin="round"/>
<path d="M187.5 123.446C214.076 108.102 244.221 100.016 274.908 100C305.596 99.984 335.749 108.038 362.341 123.354C388.934 138.67 411.031 160.71 426.417 187.262C441.802 213.814 449.935 243.946 450 274.633L448.25 274.637C448.186 244.256 440.134 214.426 424.903 188.139C409.671 161.853 387.794 140.033 361.468 124.87C335.141 109.708 305.29 101.734 274.909 101.75C244.528 101.766 214.686 109.771 188.375 124.961L187.5 123.446Z" stroke="url(#paint1_linear_87_20)" stroke-width="200" stroke-linejoin="round"/>
<path d="M187.5 426.554C160.924 411.211 138.849 389.148 123.491 362.579C108.134 336.011 100.032 305.871 100 275.183C99.968 244.495 108.006 214.339 123.308 187.738C138.61 161.138 160.639 139.029 187.183 123.629L188.061 125.143C161.782 140.388 139.974 162.276 124.825 188.611C109.676 214.945 101.718 244.8 101.75 275.181C101.782 305.562 109.802 335.401 125.006 361.704C140.211 388.006 162.064 409.848 188.375 425.039L187.5 426.554Z" stroke="url(#paint2_linear_87_20)" stroke-width="200" stroke-linejoin="round"/>
<circle cx="449" cy="275" r="70" fill="#00A86B" stroke="white" stroke-width="10"/>
<path d="M249.952 390.386V459.613L190 494.226L130.048 459.613V390.386L190 355.773L249.952 390.386Z" fill="#1E6FFF" stroke="white" stroke-width="10"/>
<path d="M195.947 81.6133L197.808 84.4229L201.109 83.752L227.631 78.3682L222.248 104.891L221.577 108.192L224.387 110.053L246.947 125L224.387 139.947L221.577 141.808L222.248 145.109L227.631 171.631L201.109 166.248L197.808 165.577L195.947 168.387L181 190.947L166.053 168.387L164.192 165.577L160.891 166.248L134.368 171.631L139.752 145.109L140.423 141.808L137.613 139.947L115.052 125L137.613 110.053L140.423 108.192L139.752 104.891L134.368 78.3682L160.891 83.752L164.192 84.4229L166.053 81.6133L181 59.0518L195.947 81.6133Z" fill="#B94DD3" stroke="white" stroke-width="10"/>
<defs>
<linearGradient id="paint0_linear_87_20" x1="450" y1="292.5" x2="210.5" y2="481.5" gradientUnits="userSpaceOnUse">
<stop offset="0.100792" stop-color="#00A86B" stop-opacity="0.9"/>
<stop offset="0.711032" stop-color="#00A86B" stop-opacity="0"/>
</linearGradient>
<linearGradient id="paint1_linear_87_20" x1="204" y1="100" x2="450" y2="275" gradientUnits="userSpaceOnUse">
<stop offset="0.103269" stop-color="#B94DD3" stop-opacity="0.9"/>
<stop offset="0.794764" stop-color="#B94DD3" stop-opacity="0"/>
</linearGradient>
<linearGradient id="paint2_linear_87_20" x1="191" y1="431" x2="142" y2="152.5" gradientUnits="userSpaceOnUse">
<stop offset="0.101909" stop-color="#1E6FFF" stop-opacity="0.9"/>
<stop offset="0.811695" stop-color="#1E6FFF" stop-opacity="0"/>
</linearGradient>
</defs>
</svg>
