<svg width="550" height="550" viewBox="0 0 550 550" fill="none" xmlns="http://www.w3.org/2000/svg">
<path d="M450 275C450 308.208 440.551 340.731 422.757 368.77C404.964 396.808 379.559 419.205 349.511 433.345C319.464 447.484 286.013 452.782 253.067 448.62C220.12 444.458 189.038 431.008 163.451 409.84L164.566 408.491C189.898 429.447 220.669 442.763 253.286 446.884C285.903 451.004 319.019 445.759 348.766 431.761C378.514 417.763 403.664 395.59 421.28 367.832C438.896 340.074 448.25 307.876 448.25 275H450Z" stroke="url(#paint0_linear_87_11)" stroke-width="200" stroke-linejoin="round"/>
<path d="M187.5 123.446C216.259 106.841 249.149 98.7629 282.328 100.154C315.507 101.544 347.606 112.346 374.875 131.299C402.144 150.251 423.457 176.571 436.326 207.185C449.195 237.798 453.087 271.441 447.549 304.185L445.824 303.893C451.307 271.477 447.453 238.17 434.713 207.863C421.973 177.556 400.872 151.499 373.876 132.736C346.88 113.973 315.102 103.279 282.255 101.902C249.408 100.525 216.847 108.523 188.375 124.961L187.5 123.446Z" stroke="url(#paint1_linear_87_11)" stroke-width="200" stroke-linejoin="round"/>
<path d="M187.5 426.554C158.741 409.95 135.3 385.506 119.914 356.077C104.529 326.648 97.835 293.448 100.614 260.356C103.393 227.265 115.53 195.647 135.607 169.195C155.685 142.744 182.874 122.551 214 110.976L214.61 112.616C183.796 124.076 156.878 144.066 137.001 170.253C117.124 196.44 105.109 227.742 102.358 260.503C99.6066 293.264 106.234 326.131 121.465 355.266C136.697 384.401 159.903 408.601 188.375 425.039L187.5 426.554Z" stroke="url(#paint2_linear_87_11)" stroke-width="200" stroke-linejoin="round"/>
<circle cx="449" cy="275" r="70" fill="#00A86B" stroke="white" stroke-width="10"/>
<path d="M249.952 390.386V459.613L190 494.226L130.048 459.613V390.386L190 355.773L249.952 390.386Z" fill="#1E6FFF" stroke="white" stroke-width="10"/>
<path d="M195.947 81.6133L197.808 84.4229L201.109 83.752L227.631 78.3682L222.248 104.891L221.577 108.192L224.387 110.053L246.947 125L224.387 139.947L221.577 141.808L222.248 145.109L227.631 171.631L201.109 166.248L197.808 165.577L195.947 168.387L181 190.947L166.053 168.387L164.192 165.577L160.891 166.248L134.368 171.631L139.752 145.109L140.423 141.808L137.613 139.947L115.052 125L137.613 110.053L140.423 108.192L139.752 104.891L134.368 78.3682L160.891 83.752L164.192 84.4229L166.053 81.6133L181 59.0518L195.947 81.6133Z" fill="#B94DD3" stroke="white" stroke-width="10"/>
<defs>
<linearGradient id="paint0_linear_87_11" x1="450" y1="292.5" x2="210.5" y2="481.5" gradientUnits="userSpaceOnUse">
<stop offset="0.100792" stop-color="#00A86B" stop-opacity="0.9"/>
<stop offset="1" stop-color="white" stop-opacity="0"/>
</linearGradient>
<linearGradient id="paint1_linear_87_11" x1="204" y1="100" x2="450" y2="275" gradientUnits="userSpaceOnUse">
<stop offset="0.103269" stop-color="#B94DD3" stop-opacity="0.9"/>
<stop offset="1" stop-color="white" stop-opacity="0"/>
</linearGradient>
<linearGradient id="paint2_linear_87_11" x1="191" y1="431" x2="142" y2="152.5" gradientUnits="userSpaceOnUse">
<stop offset="0.101909" stop-color="#1E6FFF" stop-opacity="0.9"/>
<stop offset="1" stop-color="white" stop-opacity="0"/>
</linearGradient>
</defs>
</svg>
